<svg xmlns="http://www.w3.org/2000/svg" width="32" height="32" fill="none" viewBox="0 0 32 32">
  <!-- Background circle -->
  <circle cx="16" cy="16" r="16" fill="#10b981"/>
  
  <!-- Leaf icon -->
  <path fill="#ffffff" d="M16 4 C20 4 24 8 24 16 C24 24 20 28 16 28 C12 28 8 24 8 16 C8 8 12 4 16 4 Z M16 6 C13.5 6 11 8.5 11 16 C11 23.5 13.5 26 16 26 C18.5 26 21 23.5 21 16 C21 8.5 18.5 6 16 6 Z"/>
  <path fill="#ffffff" d="M16 8 C17.5 8 19 9.5 19 16 C19 22.5 17.5 24 16 24 C14.5 24 13 22.5 13 16 C13 9.5 14.5 8 16 8 Z"/>
  
  <!-- Leaf vein -->
  <path fill="#ffffff" d="M16 6 L16 26" stroke="#ffffff" stroke-width="1"/>
</svg> 