<svg xmlns="http://www.w3.org/2000/svg" width="1200" height="1200" fill="none" viewBox="0 0 1200 1200">
  <!-- Background -->
  <rect width="1200" height="1200" fill="#f8fafc" rx="20"/>
  
  <!-- Organic landscape elements -->
  <g opacity="0.9">
    <!-- Hills/mountains -->
    <path fill="#10b981" d="M0 800 Q300 600 600 700 Q900 800 1200 750 L1200 1200 L0 1200 Z"/>
    <path fill="#059669" d="M0 850 Q400 650 800 750 Q1000 800 1200 780 L1200 1200 L0 1200 Z"/>
    
    <!-- Trees -->
    <circle cx="200" cy="650" r="80" fill="#16a34a"/>
    <circle cx="180" cy="620" r="60" fill="#15803d"/>
    <circle cx="220" cy="600" r="50" fill="#166534"/>
    
    <circle cx="1000" cy="680" r="70" fill="#16a34a"/>
    <circle cx="980" cy="650" r="55" fill="#15803d"/>
    <circle cx="1020" cy="630" r="45" fill="#166534"/>
    
    <!-- Water body -->
    <ellipse cx="600" cy="900" rx="200" ry="80" fill="#0ea5e9" opacity="0.7"/>
    <ellipse cx="600" cy="900" rx="150" ry="60" fill="#0284c7" opacity="0.8"/>
    
    <!-- Sun -->
    <circle cx="1000" cy="200" r="80" fill="#fbbf24"/>
    <circle cx="1000" cy="200" r="60" fill="#f59e0b"/>
    
    <!-- Clouds -->
    <ellipse cx="300" cy="150" rx="60" ry="30" fill="#e2e8f0"/>
    <ellipse cx="350" cy="140" rx="50" ry="25" fill="#cbd5e1"/>
    <ellipse cx="250" cy="160" rx="40" ry="20" fill="#f1f5f9"/>
    
    <!-- Grass patches -->
    <path fill="#22c55e" d="M100 950 L120 900 L140 950 L160 900 L180 950 L200 900 L220 950 L240 900 L260 950 L280 900 L300 950 L320 900 L340 950 L360 900 L380 950 L400 900 L420 950 L440 900 L460 950 L480 900 L500 950 L520 900 L540 950 L560 950 L580 950 L600 950 L620 950 L640 950 L660 950 L680 950 L700 950 L720 950 L740 950 L760 950 L780 950 L800 950 L820 950 L840 950 L860 950 L880 950 L900 950 L920 950 L940 950 L960 950 L980 950 L1000 950 L1020 950 L1040 950 L1060 950 L1080 950 L1100 950 L1120 950 L1140 950 L1160 950 L1180 950 L1200 950 L1200 1200 L0 1200 Z"/>
    
    <!-- Bio-diversity dots -->
    <circle cx="150" cy="400" r="8" fill="#8b5cf6"/>
    <circle cx="300" cy="350" r="6" fill="#ec4899"/>
    <circle cx="450" cy="420" r="10" fill="#f97316"/>
    <circle cx="600" cy="380" r="7" fill="#06b6d4"/>
    <circle cx="750" cy="400" r="9" fill="#84cc16"/>
    <circle cx="900" cy="360" r="8" fill="#ef4444"/>
    <circle cx="1050" cy="420" r="6" fill="#a855f7"/>
    
    <!-- Leaf shapes -->
    <path fill="#22c55e" d="M400 500 Q420 480 440 500 Q420 520 400 500 Z"/>
    <path fill="#16a34a" d="M800 480 Q820 460 840 480 Q820 500 800 480 Z"/>
    <path fill="#15803d" d="M600 450 Q620 430 640 450 Q620 470 600 450 Z"/>
  </g>
  
  <!-- Bioscape text -->
  <text x="600" y="200" text-anchor="middle" font-family="Arial, sans-serif" font-size="80" font-weight="bold" fill="#1e293b">BIOSCAPE</text>
  <text x="600" y="250" text-anchor="middle" font-family="Arial, sans-serif" font-size="24" fill="#64748b">Harmonizing Nature & Technology</text>
</svg>